<?xml version="1.0" standalone="no"?><!DOCTYPE svg PUBLIC "-//W3C//DTD SVG 1.1//EN" "http://www.w3.org/Graphics/SVG/1.1/DTD/svg11.dtd"><svg t="1692106204888" class="icon" viewBox="0 0 1024 1024" version="1.1" xmlns="http://www.w3.org/2000/svg" p-id="22141" xmlns:xlink="http://www.w3.org/1999/xlink" width="200" height="200"><path d="M236.215236 794.331632l-10.251845 1.997113c-11.716395 4.127366-22.234522 14.246071-26.228748 25.962466-4.793071 13.846649-2.396535 36.613734-2.396535 54.321467 0 40.474819-4.65993 70.43151 23.565931 83.878737 5.458775 2.662817 14.512353 6.390761 22.500803 5.192493 17.17517-2.529676 27.826438-10.251846 35.149185-22.500804 7.589029-12.781522 5.059352-37.812002 5.059352-57.78313v-53.922044c-4.526789-22.900226-19.305423-37.412579-47.398143-37.146298z m274.802717-58.049411c40.60796-0.399423 36.214312 27.027593 36.214312 65.904721v75.357722c0 24.231635 3.994226 56.052298-9.586141 66.969848-15.843761 12.648381-36.081171 7.722169-45.401031-7.589028-4.65993-7.455888-3.461662-19.837987-3.461662-32.086945 0-22.101381-1.730831-46.86558 0.665704-67.901834l-0.665704-0.665705h-1.331408c-5.858197 8.121592-25.829325 28.625283-35.814889 31.421241-23.965353 6.923324-43.004495-17.17517-35.814889-38.610847 3.727944-11.316972 21.036254-23.565931 29.290987-31.687522 10.784409-10.651268 21.302536-21.435677 32.086945-32.086945 6.657043-6.523902 12.248958-15.311198 19.837987-20.769973 4.260507-3.19538 9.719282-4.926211 13.979789-8.254733z m-275.068998-0.399422l18.77286 0.399422c34.084058 7.85531 58.715115 23.565931 73.360609 50.859805 2.529676 4.393648 4.926211 8.920437 7.455887 13.314085 3.328521 10.251846 4.260507 19.172283 6.12448 31.021819-0.133141 7.056465-0.133141 14.11293-0.266282 21.169395 0.133141 6.124479 0.133141 12.382099 0.266282 18.506578l0.399422 12.648381c-0.266282 17.17517-0.532563 34.48348-0.665704 51.791791-9.985564 52.723777-45.267889 88.538666-107.84409 88.405526-3.727944-2.662817-9.453-1.198268-15.044916-2.396536-6.124479-1.863972-12.382099-3.861085-18.506578-5.725056-17.974015-6.790183-35.94803-23.166508-45.40103-39.01027-5.858197-9.985564-10.784409-21.8351-13.97979-34.48348-3.594803-14.246071-1.331409-34.35034-1.331408-50.726665 0-47.664425-2.795958-83.479314 17.042029-111.705174 12.51524-17.574592 31.021818-32.486368 53.922044-39.542832 5.725057-1.331409 11.450113-2.795958 17.042029-4.127367l8.654156-0.399422zM99.346441 445.10318c0.266282 0.266282 0.399423 0.532563 0.665705 0.665704-0.266282-0.133141-0.399423-0.399423-0.665705-0.665704z m745.455626-12.648381c-4.926211 1.198268-9.719282 2.263394-14.645493 3.461662-11.183831 5.591916-21.701959 16.376325-24.89734 29.69041-3.19538 12.648381-0.665704 36.613734-0.665704 50.460382 0 42.738213-4.526789 66.570426 23.565931 82.946751 4.793071 2.929099 13.713508 6.523902 22.101381 5.192493 18.373437-2.795958 30.888677-11.183831 37.279438-25.563044 5.858197-13.314085 3.328521-37.279438 3.328522-55.652875 0-16.509466 2.529676-43.80334-0.931986-57.78313-4.926211-18.906001-21.169395-32.88579-45.134749-32.752649z m-468.922078 0c-3.461662 0.665704-6.923324 1.198268-10.251845 1.730831-14.645494 4.926211-25.563043 15.178057-30.089833 30.089832-3.328521 11.316972-1.065127 36.214312-1.065126 50.859805 0 41.007382-4.393648 67.23613 22.234522 83.213032 5.458775 3.328521 14.246071 7.455888 23.965353 5.858198 15.976902-2.662817 28.891565-9.719282 35.149185-21.8351 6.923324-13.846649 5.059352-37.945143 5.059352-58.715115 0-16.243184 2.795958-46.86558-1.331408-59.780242-5.858197-18.240297-20.104269-30.755537-43.6702-31.421241z m268.278815-57.649989c18.107156-0.133141 28.22586 11.050691 30.622396 26.62817 0 9.186719-0.133141 18.373437-0.266281 27.693297 0.133141 52.856918 0.266282 105.713836 0.266281 158.703895 0 33.950917 5.725057 63.375045-19.704846 72.961187-16.243184 6.124479-30.888677-4.926211-35.548607-15.311198-3.994226-9.053578-3.461662-21.96824-3.461662-35.814889v-95.595131c-1.065127-7.056465 2.396535-36.746875-0.665704-39.276552-2.396535 2.795958-4.926211 5.458775-7.455888 8.254733-11.583254 14.379212-32.619509 34.217199-54.987172 17.042029-3.461662-2.662817-7.056465-6.25762-8.787296-10.651268-7.589029-18.373437 5.458775-30.089832 13.580367-39.14341 16.908888-16.908888 33.950917-33.684635 50.859805-50.593524 7.722169-6.25762 12.781522-15.444339 21.568818-20.769972 4.127366-2.529676 8.787296-2.130254 13.979789-4.127367z m-275.202139-0.399422c9.453 0.798845 21.568818-0.931986 30.489255 1.730831 33.551494 10.251846 58.981397 29.157846 71.89606 59.780242 8.121592 19.039142 11.050691 50.460383 7.85531 76.422848-2.396535 19.971128 3.06224 44.335903-0.665704 62.842482-9.31986 46.86558-38.743988 78.15368-86.674695 86.408413-13.846649 2.263394-31.2881 0-41.007382-3.461662-4.526789-1.198268-9.053578-2.529676-13.580366-3.727944-29.823551-13.447226-52.723777-39.542833-59.780243-75.490863-3.461662-17.840874-1.331409-39.010269-1.331408-59.38082 0-24.497917-2.662817-51.791791 3.727944-71.629778 10.118705-31.154959 29.557269-51.126087 56.718002-65.239017 6.790183-2.130254 13.580367-4.260507 20.503691-6.523901 4.526789-1.065127 8.387874 0 11.849536-1.730831z m-190.391417 0c30.489255 0.665704 28.625283 30.622396 28.625283 61.910495V588.495876c0 30.222973 3.994226 60.97851-16.376325 70.964074-16.775747 8.387874-35.149185-2.795958-40.208537-15.044916-4.793071-11.183831-1.730831-31.2881-1.730831-46.066735v-123.155287l-2.396535-0.399423c-1.863972 5.192493-7.322747 8.654155-10.91755 12.3821-6.657043 6.657043-12.914663 14.379212-22.234522 18.373437-20.37055 8.654155-37.279438-9.586141-39.276551-26.228748-1.997113-17.441452 14.512353-27.160734 22.633944-35.548607 14.11293-14.778634 28.359001-30.888677 43.936481-44.069622 7.455888-6.25762 12.781522-15.311198 21.169396-20.503691 3.461662-1.331409 6.790183-2.662817 10.251845-3.994225l6.523902-0.798845z m666.636242-0.266282c54.321467-0.798845 91.467765 36.746875 101.985892 80.150792 4.793071 19.438564 1.065127 44.202763 1.730831 66.304144 0.532563 17.974015 2.529676 45.40103-1.331409 61.111651-8.387874 33.285213-31.953804 63.241904-62.443059 74.026313-10.651268 3.727944-20.503691 4.393648-33.152072 6.523902-19.971128 3.19538-43.80334-7.722169-54.987171-13.979789-25.03048-14.379212-40.60796-35.814889-49.128974-66.570426-4.393648-15.976902-1.730831-42.338791-1.730831-61.111651 0-21.96824-2.529676-47.930706 2.130253-65.904721 8.654155-33.950917 29.290987-59.913383 59.38082-72.428623 6.390761-1.997113 12.648381-3.994226 19.039141-6.124479l18.506579-1.997113zM622.323705 91.481079v1.065127a1.59769 1.59769 0 0 1 0.665704-0.665705c-0.266282-0.133141-0.532563-0.266282-0.665704-0.399422z m224.209193-33.152072l-14.379212 2.795958c-10.384986 3.727944-20.769973 12.914663-24.497916 23.166508-5.458775 14.778634-3.06224 37.412579-3.06224 56.984284 0 41.273664-4.526789 69.499524 23.832213 83.745596 5.725057 2.795958 14.246071 6.523902 24.231634 4.659929 16.110043-2.795958 30.356114-12.248958 35.149185-26.228747 4.926211-14.246071 3.06224-37.146297 3.06224-56.718003V96.673572c-5.325634-22.234522-17.707733-37.812002-44.335904-38.344565zM840.008997 0.013314c58.315693-0.798845 97.459103 34.48348 107.577807 81.215919 4.260507 19.971128 1.730831 47.930706 1.730831 72.029201 0 25.962466 0.266282 49.128974-6.124479 68.966961-11.050691 33.950917-44.202763 58.315693-82.281046 65.505299h-11.982676c-20.37055 0-32.353227-4.526789-45.800453-10.518128-27.959579-12.648381-47.664425-37.412579-55.253453-70.298369-3.861085-16.775747-1.730831-38.877129-1.730831-58.049411 0-46.333016-1.198268-75.890285 17.042028-104.116146 9.985564-15.311198 26.761311-29.024706 44.469045-36.480593 6.790183-2.130254 13.580367-4.127366 20.503691-6.25762 4.260507-0.665704 9.852423 1.065127 11.849536-1.997113zM567.602815 0.013314c50.593523-0.665704 90.003215 26.894452 102.119033 64.839595 5.725057 17.840874 11.982677 43.137636-1.331409 57.383706-9.053578 9.719282-28.891565 9.186719-39.276551 1.331409-14.512353-11.050691-6.124479-26.894452-14.379212-40.874241-17.574592-30.222973-64.839595-33.817776-79.218806 1.331408-4.526789 11.316972-3.328521 29.290987-3.328521 45.40103 0 38.078283-5.325634 75.490863 17.042029 92.133469 12.914663 9.586141 41.273664 5.591916 50.1941 19.172283 13.047803 19.571705 2.263394 41.806227-17.042028 46.998721h-9.586142c-18.506578 0-31.2881-4.926211-43.403917-11.183832-20.903114-10.784409-39.675974-27.959579-48.063848-50.859805-7.455888-20.237409-7.189606-44.602185-7.189605-73.094327 0-45.933594-2.130254-79.485088 16.376324-107.178386A103.943063 103.943063 0 0 1 535.249588 8.268047c6.790183-2.130254 13.580367-4.127366 20.503691-6.25762 4.260507-0.665704 9.852423 1.065127 11.849536-1.997113zM372.81775 0.013314c35.016044-0.266282 31.687523 29.956692 31.687522 64.573313v145.656091c0 28.492142 4.526789 62.176778-12.914662 73.49375-13.314085 8.521014-32.486368 2.396535-39.675974-7.189606-7.189606-9.719282-5.458775-29.290987-5.458775-46.066735v-89.470652c0-11.583254-2.263394-31.554382 0.665704-40.341677-0.133141 0-0.133141-0.133141-0.266281-0.266282-0.399423 0.133141-0.665704 0.266282-1.065127 0.266282-2.662817 0.931986-3.328521 3.461662-5.059352 5.192493-7.455888 7.322747-14.911775 14.512353-22.234523 21.835099-22.234522 12.781522-43.537058-0.133141-46.732438-22.900226-2.263394-15.71062 14.778634-27.160734 22.101381-34.48348 11.450113-11.716395 22.767086-23.43279 34.217199-35.149185 8.387874-6.923324 17.17517-15.178057 23.832212-23.832213 3.727944-2.929099 7.589029-5.725057 11.316972-8.521014 3.06224-1.59769 7.85531 0.133141 9.586142-2.795958z" fill="#f4ea2a" p-id="22142"></path></svg>